<?xml version="1.0" encoding="UTF-8" standalone="no"?>
<svg width="14px" height="13px" viewBox="0 0 14 13" version="1.1" xmlns="http://www.w3.org/2000/svg" xmlns:xlink="http://www.w3.org/1999/xlink" xmlns:sketch="http://www.bohemiancoding.com/sketch/ns">
    <!-- Generator: Sketch 3.3.1 (12002) - http://www.bohemiancoding.com/sketch -->
    <title>close-icon</title>
    <desc>Created with Sketch.</desc>
    <defs></defs>
    <g id="Page-1" stroke="none" stroke-width="1" fill="none" fill-rule="evenodd" sketch:type="MSPage">
        <g id="Compose-Chirp" sketch:type="MSArtboardGroup" transform="translate(-896.000000, -209.000000)" fill="#A6B0AA">
            <g id="modal" sketch:type="MSLayerGroup" transform="translate(319.000000, 192.000000)">
                <g id="header" sketch:type="MSShapeGroup">
                    <path d="M585.34,22.16 L585.34,16.4674086 C585.34,15.7211414 584.740062,15.125 584,15.125 C583.254779,15.125 582.66,15.7260168 582.66,16.4674086 L582.66,22.16 L576.967409,22.16 C576.221141,22.16 575.625,22.7599384 575.625,23.5 C575.625,24.2452211 576.226017,24.84 576.967409,24.84 L582.66,24.84 L582.66,30.5325914 C582.66,31.2788586 583.259938,31.875 584,31.875 C584.745221,31.875 585.34,31.2739832 585.34,30.5325914 L585.34,24.84 L591.032591,24.84 C591.778859,24.84 592.375,24.2400616 592.375,23.5 C592.375,22.7547789 591.773983,22.16 591.032591,22.16 L585.34,22.16 Z" id="close-icon" transform="translate(584.000000, 23.500000) rotate(-45.000000) translate(-584.000000, -23.500000) "></path>
                </g>
            </g>
        </g>
    </g>
</svg>