<?xml version="1.0" encoding="UTF-8" standalone="no"?>
<svg width="113px" height="39px" viewBox="0 0 113 39" version="1.1" xmlns="http://www.w3.org/2000/svg" xmlns:xlink="http://www.w3.org/1999/xlink" xmlns:sketch="http://www.bohemiancoding.com/sketch/ns">
    <!-- Generator: Sketch 3.3.2 (12043) - http://www.bohemiancoding.com/sketch -->
    <title>logotype</title>
    <desc>Created with Sketch.</desc>
    <defs></defs>
    <g id="Page-1" stroke="none" stroke-width="1" fill="none" fill-rule="evenodd" sketch:type="MSPage">
        <g id="Home" sketch:type="MSArtboardGroup" transform="translate(-35.000000, -6.000000)">
            <g id="header" sketch:type="MSLayerGroup">
                <g id="logotype" transform="translate(35.000000, 6.000000)" sketch:type="MSShapeGroup">
                    <g id="logo">
                        <circle id="Oval-10" fill="#FFEE79" cx="19.5" cy="19.5" r="19.5"></circle>
                        <path d="M17.0701466,12.3603814 C18.5882792,12.467965 19.7864624,13.733633 19.7864624,15.2791516 C19.7864624,16.8952362 18.4763669,18.2053317 16.8602822,18.2053317 C15.2441976,18.2053317 13.9341021,16.8952362 13.9341021,15.2791516 C13.9341021,14.6956937 14.1048651,14.1521197 14.3991395,13.6956811 C14.5049738,14.4630713 15.16343,15.0540608 15.9599191,15.0540608 C16.8301186,15.0540608 17.5355546,14.3486248 17.5355546,13.4784253 C17.5355546,13.0413377 17.3575804,12.6458181 17.0701466,12.3603814 Z M12.2654357,9.80945758 C13.8713702,8.58752546 15.9458077,7.85115583 18.2108269,7.85115583 C23.3077093,7.85115583 27.4395489,11.5798891 27.4395489,16.1795147 C27.4395489,16.5347515 27.4149036,16.8847937 27.3670718,17.2283247 L27.3670718,17.2283247 C27.3822252,17.4166502 27.3655474,17.6113709 27.3142061,17.8126847 C26.0967099,22.5865986 27.5039818,25.8946699 29.1151643,26.5219155 C30.7263467,27.1491611 35.3074224,26.5219155 29.8412277,29.2973367 C24.3750329,32.072758 16.6647431,33.2525687 10.9537345,26.5219154 C7.4500612,22.3926954 7.98290458,17.853942 8.91819922,14.9622864 C8.52599317,14.2453191 7.31270364,11.9654128 7.31270366,11.1986244 C7.31270368,10.2840072 7.13169099,9.50418143 8.36856737,9.50418138 C9.12725831,9.50418134 10.9609762,9.67634112 12.2654357,9.80945758 L12.2654357,9.80945758 Z M17.3104638,21.3566026 C20.4183189,21.3566026 22.9377333,18.8371883 22.9377333,15.7293331 C22.9377333,12.621478 20.4183189,10.1020636 17.3104638,10.1020636 C14.2026087,10.1020636 11.6831943,12.621478 11.6831943,15.7293331 C11.6831943,18.8371883 14.2026087,21.3566026 17.3104638,21.3566026 Z" id="logomark" fill="#5BB977"></path>
                    </g>
                    <path d="M59.3671875,26.4140625 C58.3320261,26.9609402 57.0429765,27.234375 55.5,27.234375 C53.5078025,27.234375 51.9127664,26.5931054 50.7148438,25.3105469 C49.5169211,24.0279884 48.9179688,22.3450625 48.9179688,20.2617188 C48.9179688,18.0221242 49.5917901,16.2122465 50.9394531,14.8320312 C52.2871161,13.451816 53.9960834,12.7617188 56.0664062,12.7617188 C57.3945379,12.7617188 58.4947873,12.9537741 59.3671875,13.3378906 L59.3671875,15.0859375 C58.3645783,14.5260389 57.2578186,14.2460938 56.046875,14.2460938 C54.438794,14.2460938 53.1350961,14.7831978 52.1357422,15.8574219 C51.1363882,16.931646 50.6367188,18.3671785 50.6367188,20.1640625 C50.6367188,21.8698002 51.1038365,23.2288361 52.0380859,24.2412109 C52.9723354,25.2535858 54.1979091,25.7597656 55.7148438,25.7597656 C57.1211008,25.7597656 58.3385365,25.4472687 59.3671875,24.8222656 L59.3671875,26.4140625 Z M70.3046875,27 L68.703125,27 L68.703125,21.2382812 C68.703125,19.1549375 67.9283932,18.1132812 66.3789062,18.1132812 C65.5976523,18.1132812 64.9401068,18.414385 64.40625,19.0166016 C63.8723932,19.6188181 63.6054688,20.3919224 63.6054688,21.3359375 L63.6054688,27 L62.0039062,27 L62.0039062,12.1953125 L63.6054688,12.1953125 L63.6054688,18.6601562 L63.6445312,18.6601562 C64.4127643,17.3971291 65.5065033,16.765625 66.9257812,16.765625 C69.1783967,16.765625 70.3046875,18.1230333 70.3046875,20.8378906 L70.3046875,27 Z M74.1425781,14.4609375 C73.8561184,14.4609375 73.6119802,14.3632822 73.4101562,14.1679688 C73.2083323,13.9726553 73.1074219,13.7252619 73.1074219,13.4257812 C73.1074219,13.1263006 73.2083323,12.8772796 73.4101562,12.6787109 C73.6119802,12.4801422 73.8561184,12.3808594 74.1425781,12.3808594 C74.4355483,12.3808594 74.6845693,12.4801422 74.8896484,12.6787109 C75.0947276,12.8772796 75.1972656,13.1263006 75.1972656,13.4257812 C75.1972656,13.712241 75.0947276,13.9563792 74.8896484,14.1582031 C74.6845693,14.3600271 74.4355483,14.4609375 74.1425781,14.4609375 L74.1425781,14.4609375 Z M74.9238281,27 L73.3222656,27 L73.3222656,17 L74.9238281,17 L74.9238281,27 Z M83.3808594,18.6210938 C83.1009101,18.4062489 82.6972683,18.2988281 82.1699219,18.2988281 C81.4863247,18.2988281 80.9150414,18.6210905 80.4560547,19.265625 C79.997068,19.9101595 79.7675781,20.7890569 79.7675781,21.9023438 L79.7675781,27 L78.1660156,27 L78.1660156,17 L79.7675781,17 L79.7675781,19.0605469 L79.8066406,19.0605469 C80.0345063,18.3574184 80.3828102,17.8089212 80.8515625,17.4150391 C81.3203148,17.0211569 81.8443981,16.8242188 82.4238281,16.8242188 C82.8404969,16.8242188 83.1595041,16.8697912 83.3808594,16.9609375 L83.3808594,18.6210938 Z M86.7597656,25.5546875 L86.7207031,25.5546875 L86.7207031,31.5996094 L85.1191406,31.5996094 L85.1191406,17 L86.7207031,17 L86.7207031,18.7578125 L86.7597656,18.7578125 C87.54753,17.4296809 88.6998622,16.765625 90.2167969,16.765625 C91.5058658,16.765625 92.5117151,17.2132117 93.234375,18.1083984 C93.9570349,19.0035852 94.3183594,20.2031175 94.3183594,21.7070312 C94.3183594,23.3802167 93.9114624,24.7197215 93.0976562,25.7255859 C92.2838501,26.7314503 91.17058,27.234375 89.7578125,27.234375 C88.4622331,27.234375 87.4628941,26.6744848 86.7597656,25.5546875 L86.7597656,25.5546875 Z M86.7207031,21.5214844 L86.7207031,22.9179688 C86.7207031,23.7447958 86.9892551,24.4462862 87.5263672,25.0224609 C88.0634792,25.5986357 88.7454386,25.8867188 89.5722656,25.8867188 C90.5423226,25.8867188 91.3024061,25.5156287 91.8525391,24.7734375 C92.402672,24.0312463 92.6777344,22.9993556 92.6777344,21.6777344 C92.6777344,20.5644476 92.4205755,19.6920604 91.90625,19.0605469 C91.3919245,18.4290333 90.6953169,18.1132812 89.8164062,18.1132812 C88.885412,18.1132812 88.1367216,18.4371712 87.5703125,19.0849609 C87.0039034,19.7327506 86.7207031,20.544917 86.7207031,21.5214844 L86.7207031,21.5214844 Z M104.914062,22.4003906 L97.8535156,22.4003906 C97.8795574,23.5136774 98.1790336,24.3730438 98.7519531,24.9785156 C99.3248727,25.5839874 100.112625,25.8867188 101.115234,25.8867188 C102.241542,25.8867188 103.276688,25.5156287 104.220703,24.7734375 L104.220703,26.2773438 C103.341792,26.9153678 102.179695,27.234375 100.734375,27.234375 C99.3216075,27.234375 98.2115926,26.780278 97.4042969,25.8720703 C96.5970012,24.9638626 96.1933594,23.6862062 96.1933594,22.0390625 C96.1933594,20.4830651 96.6344357,19.2151742 97.5166016,18.2353516 C98.3987674,17.255529 99.4941341,16.765625 100.802734,16.765625 C102.111335,16.765625 103.123694,17.1887979 103.839844,18.0351562 C104.555993,18.8815146 104.914062,20.0566331 104.914062,21.5605469 L104.914062,22.4003906 Z M103.273438,21.0429688 C103.266927,20.118485 103.043948,19.3990911 102.604492,18.8847656 C102.165037,18.3704401 101.554691,18.1132812 100.773438,18.1132812 C100.018225,18.1132812 99.3769558,18.3834608 98.8496094,18.9238281 C98.322263,19.4641954 97.9967454,20.1705686 97.8730469,21.0429688 L103.273438,21.0429688 Z M112.550781,18.6210938 C112.270832,18.4062489 111.86719,18.2988281 111.339844,18.2988281 C110.656247,18.2988281 110.084963,18.6210905 109.625977,19.265625 C109.16699,19.9101595 108.9375,20.7890569 108.9375,21.9023438 L108.9375,27 L107.335938,27 L107.335938,17 L108.9375,17 L108.9375,19.0605469 L108.976562,19.0605469 C109.204428,18.3574184 109.552732,17.8089212 110.021484,17.4150391 C110.490237,17.0211569 111.01432,16.8242188 111.59375,16.8242188 C112.010419,16.8242188 112.329426,16.8697912 112.550781,16.9609375 L112.550781,18.6210938 Z" id="Chirper" fill="#73AA85"></path>
                </g>
            </g>
        </g>
    </g>
</svg>