<?xml version="1.0" encoding="UTF-8" standalone="no"?>
<svg width="41px" height="39px" viewBox="0 0 41 39" version="1.1" xmlns="http://www.w3.org/2000/svg" xmlns:xlink="http://www.w3.org/1999/xlink" xmlns:sketch="http://www.bohemiancoding.com/sketch/ns">
    <!-- Generator: Sketch 3.3.1 (12002) - http://www.bohemiancoding.com/sketch -->
    <title>logomark</title>
    <desc>Created with Sketch.</desc>
    <defs></defs>
    <g id="Page-1" stroke="none" stroke-width="1" fill="none" fill-rule="evenodd" sketch:type="MSPage">
        <g id="Profile-Copy" sketch:type="MSArtboardGroup" transform="translate(-398.000000, -383.000000)" fill="#CED3D0">
            <g id="no-chirps" sketch:type="MSLayerGroup" transform="translate(298.000000, 358.000000)">
                <path d="M116.111791,33.0207125 C118.569032,33.1948468 120.508405,35.2434504 120.508405,37.7450188 C120.508405,40.3608051 118.387892,42.4813188 115.772105,42.4813188 C113.156319,42.4813188 111.035805,40.3608051 111.035805,37.7450188 C111.035805,36.800637 111.312201,35.9208109 111.788512,35.1820217 C111.959815,36.4241155 113.025589,37.3806881 114.314782,37.3806881 C115.723283,37.3806881 116.865098,36.238873 116.865098,34.8303727 C116.865098,34.1229049 116.577029,33.482719 116.111791,33.0207125 Z M108.334911,28.8918005 C110.934268,26.9139875 114.291942,25.7221034 117.95809,25.7221034 C126.207877,25.7221034 132.895652,31.7574118 132.895652,39.2023419 C132.895652,39.7773264 132.855761,40.3439028 132.77834,40.8999404 L132.77834,40.8999404 C132.802868,41.2047631 132.775873,41.5199369 132.692772,41.8457825 C130.722139,49.5728147 132.999942,54.9272417 135.607794,55.9424982 C138.215645,56.9577546 145.630551,55.9424982 136.782996,60.4347806 C127.935442,64.9270631 115.455607,66.8366987 106.211798,55.9424981 C100.54077,49.258964 101.403228,41.9125612 102.917091,37.2321425 C102.282268,36.071663 100.318444,32.3814185 100.318444,31.1402988 C100.318444,29.659904 100.025458,28.3976821 102.02746,28.397682 C103.255473,28.397682 106.223519,28.6763389 108.334911,28.8918005 L108.334911,28.8918005 Z M116.500767,47.5819496 C121.531125,47.5819496 125.609036,43.5040386 125.609036,38.4736804 C125.609036,33.4433222 121.531125,29.3654111 116.500767,29.3654111 C111.470409,29.3654111 107.392498,33.4433222 107.392498,38.4736804 C107.392498,43.5040386 111.470409,47.5819496 116.500767,47.5819496 Z" id="logomark" sketch:type="MSShapeGroup"></path>
            </g>
        </g>
    </g>
</svg>